# xmcd
# 
# Track frame offsets:
#     150
#     15095
#     30085
#     43175
#     56417
#     70150
#     84857
#     98107
#     111940
#     126330
#     136487
#     148370
#     162925
#     177077
#     190810
#     202880
#     214825
#     229677
#     243625
#     256367
#     269875
#     282510
#     296800
#     310262
#     323967
# 
# Disc length: 4493
# 
# Revision: 3
# Processed by: cddbd v1.5.2PL0 Copyright (c) Steve Scherf et al.
# Submitted via: fre:ac v1.0.27
# 
DISCID=77118b19
DTITLE=Billie Holiday - The Finest
DYEAR=1999
DGENRE=Jazz
TTITLE0=Georgia On My Mind
TTITLE1=Love Me Or Leave Me
TTITLE2=Summertime
TTITLE3=I Cover The Waterfront
TTITLE4=It's A Sin to Tell A Lie
TTITLE5=Can't Help Lovin' Dat Man
TTITLE6=Let's Do It
TTITLE7=Time On My Hands
TTITLE8=Gloomy Sunday
TTITLE9=Romance In The Dark
TTITLE10=Let's Call The Whole Thing Off
TTITLE11=Solitude
TTITLE12=Jim
TTITLE13=My Man
TTITLE14=I Hear Music
TTITLE15=Practice Makes Perfect
TTITLE16=Loveless Love
TTITLE17=I'm In A Low Down Groove
TTITLE18=Am I Blue
TTITLE19=Wherever You Are
TTITLE20=St. Louis Blues
TTITLE21=This Year's Kisses
TTITLE22=Mandy Is Two
TTITLE23=Let's Call A Heart A Heart
TTITLE24=God Bless This Child
EXTD=YEAR: 1999
EXTT0=
EXTT1=
EXTT2=
EXTT3=
EXTT4=
EXTT5=
EXTT6=
EXTT7=
EXTT8=
EXTT9=
EXTT10=
EXTT11=
EXTT12=
EXTT13=
EXTT14=
EXTT15=
EXTT16=
EXTT17=
EXTT18=
EXTT19=
EXTT20=
EXTT21=
EXTT22=
EXTT23=
EXTT24=
PLAYORDER=
